<?xml version="1.0" encoding="utf-8"?>
<!-- Generator: Adobe Illustrator 22.1.0, SVG Export Plug-In . SVG Version: 6.00 Build 0)  -->
<svg version="1.1" id="Layer_1" xmlns="http://www.w3.org/2000/svg" xmlns:xlink="http://www.w3.org/1999/xlink" x="0px" y="0px"
	 viewBox="0 0 1800 1800" style="enable-background:new 0 0 1800 1800;" xml:space="preserve">
<style type="text/css">
	.st0{fill:#FFFFFF;}
	.st1{fill:#C1822E;}
	.st2{clip-path:url(#XMLID_2_);fill:#744E30;}
	.st3{clip-path:url(#XMLID_2_);fill:#744E31;}
	.st4{clip-path:url(#XMLID_2_);fill:#5D321B;}
	.st5{clip-path:url(#XMLID_3_);fill:#EA5D3F;}
	.st6{clip-path:url(#XMLID_3_);fill:#EA5D40;}
	.st7{clip-path:url(#XMLID_3_);fill:#71281A;}
	.st8{clip-path:url(#XMLID_4_);fill:#2BAAC3;}
	.st9{clip-path:url(#XMLID_4_);fill:#29ABC7;}
	.st10{clip-path:url(#XMLID_4_);fill:#684D44;}
	.st11{clip-path:url(#XMLID_4_);fill:#684D45;}
	.st12{clip-path:url(#XMLID_5_);fill:#D4AF77;}
	.st13{clip-path:url(#XMLID_5_);fill:#D4B07A;}
	.st14{clip-path:url(#XMLID_5_);fill:#47806A;}
	.st15{clip-path:url(#XMLID_6_);fill:#73BAB5;}
	.st16{clip-path:url(#XMLID_6_);fill:#73BAB8;}
	.st17{clip-path:url(#XMLID_7_);fill:#DDB41F;}
	.st18{clip-path:url(#XMLID_7_);fill:#718C38;}
	.st19{clip-path:url(#XMLID_7_);fill:#718C39;}
	.st20{clip-path:url(#XMLID_8_);fill:#E0D5C4;}
	.st21{clip-path:url(#XMLID_8_);fill:#DFD6C7;}
	.st22{clip-path:url(#XMLID_8_);fill:#C39A26;}
	.st23{clip-path:url(#XMLID_9_);fill:#B5BB10;}
	.st24{clip-path:url(#XMLID_9_);fill:#9FA223;}
	.st25{fill:#2B2523;}
	.st26{clip-path:url(#XMLID_10_);fill:#E0D5C4;}
	.st27{clip-path:url(#XMLID_10_);fill:#DFD6C7;}
</style>
<g>
	<path id="XMLID_2186_" class="st0" d="M653.4,364.2v265.7H345.1c-54.3,0-104.7-13.7-151.2-41.2c-46.5-27-83.7-64-111.6-111.2
		c-28-46.8-42-97.2-42-151.3c0-42.8,8.1-82.4,24.4-119.1c15.7-36.7,38.5-68.9,68.2-96.7c29.4-27.7,63.7-49,102.8-63.7
		c38.9-14.8,81.2-22.2,126.9-22.2h289.9v263.6L386.7,34.4v582.8L653.4,364.2z"/>
	<path class="st0" d="M707.6,251.5v444.8H674c-39.5,0-75.9-10-109.1-30.1c-33.2-19.7-59.6-46.8-79.3-81.5
		c-19.5-34.4-29.2-71.4-29.2-111.3c0-31.4,5.7-60.9,17.2-88.4c11.8-27.6,27.7-51.3,48.3-70.8c21.1-20.1,45.8-35.5,74.2-46.3
		c28.9-11,59.7-16.5,92.1-16.5H707.6z M745.2,696.3V251.5h22.3c31.7,0,61.5,5.6,89.6,16.7c28.6,11.8,53.2,27.4,73.8,47.2
		c20.8,20.1,37,43.6,48.6,70.6c11.7,26.9,17.6,56,17.6,87c0,31.6-5.7,60.8-17.1,87.6c-11.7,27.8-27.7,51.6-48.1,71.6
		c-21,20.9-45.4,36.7-73.1,47.5c-27.8,11.2-57.7,16.7-89.6,16.7H745.2z"/>
	<path id="XMLID_2183_" class="st0" d="M1238.4,302.8v175.6h-203.6c-35.9,0-69.2-9-100-27.2c-30.7-17.9-55.3-42.3-73.8-73.4
		c-18.4-30.9-27.7-64.3-27.7-100c0-28.2,5.4-54.5,16.1-78.7c10.4-24.2,25.5-45.6,45.1-63.9c19.5-18.4,42-32.4,67.9-42.1
		c25.7-9.8,53.7-14.7,83.9-14.7h191.6v174.3L1062.2,84.9v385.2L1238.4,302.8z"/>
	<path class="st0" d="M1243.8,328.1v282.8h-21.5c-25.2,0-48.2-6.4-69.3-19.2c-21.2-12.5-37.9-29.7-50.5-51.7
		c-12.4-21.9-18.5-45.5-18.5-70.8c0-20,3.7-38.8,10.9-56.3c7.5-17.6,17.7-32.6,30.7-45c13.4-12.6,29.2-22.5,47.2-29.3
		c18.4-7.1,37.9-10.6,58.6-10.6H1243.8z M1267.6,610.9V328.1h14.1c20.2,0,39.1,3.6,56.9,10.7c18.2,7.5,33.8,17.5,46.8,30
		c13.2,12.8,23.6,27.7,31,44.9c7.4,17.1,11.1,35.5,11.1,55.3c0,20.1-3.6,38.6-10.7,55.6c-7.4,17.7-17.6,32.7-30.6,45.5
		c-13.4,13.3-28.8,23.3-46.6,30.2c-17.6,7.1-36.6,10.6-56.9,10.6H1267.6z"/>
	<polygon id="XMLID_2180_" class="st0" points="1347.1,476.5 1423,295.2 1560.9,295.2 1759.7,756.7 1463.6,756.7 1381,558.1 
		1338.9,558.1 1420.7,756.7 1228,756.7 1325.9,524.7 1366.8,524.7 	"/>
	<polygon id="XMLID_2179_" class="st0" points="44.8,1258 44.8,749.6 338.3,749.6 338.3,1245.5 610.4,1005.9 610.4,1258 	"/>
	<path class="st0" d="M667.8,955v398.6h-30.1c-35.4,0-68-9-97.8-27c-29.7-17.6-53.3-42.1-70.9-73c-17.5-30.8-26.3-64.1-26.3-99.7
		c0-28.2,5.2-54.6,15.5-79.2c10.5-24.9,24.8-46.1,43.1-63.5c19-18,41.2-31.8,66.6-41.4c25.9-9.8,53.4-14.8,82.5-14.8H667.8z
		 M701.5,1353.5V955h19.9c28.5,0,55.2,5,80.3,15c25.7,10.5,47.7,24.5,66.1,42.3c18.7,17.9,33.2,39,43.6,63.1
		c10.5,24.2,15.8,50.2,15.8,78c0,28.4-5.1,54.5-15.3,78.5c-10.4,24.8-24.8,46.2-43.1,64.2c-18.8,18.7-40.6,32.8-65.5,42.5
		c-25,10-51.7,15-80.3,15H701.5z"/>
	<path id="XMLID_2176_" class="st0" d="M1170.4,1038v174.3H968.3c-35.6,0-68.8-9-99.2-27.1c-30.4-17.6-54.9-41.9-73.2-72.8
		c-18.3-30.7-27.5-63.8-27.5-99.2c0-28,5.4-54,16-78.1c10.4-24.1,25.2-45.2,44.8-63.4c19.3-18.2,41.8-32.1,67.5-41.9
		c25.6-9.7,53.2-14.5,83.3-14.5H1170v172.7L995.5,821.8V1204L1170.4,1038z"/>
	<path class="st0" d="M1268.9,939.4v357.2h-27c-31.8,0-61-8-87.6-24.2c-26.7-15.9-47.9-37.7-63.7-65.5
		c-15.6-27.5-23.5-57.4-23.5-89.4c0-25.2,4.6-48.8,13.9-71c9.4-22.2,22.2-41.2,38.6-56.9c17-16.1,37-28.5,59.7-37.1
		c23.3-8.8,47.9-13.3,74-13.3H1268.9z M1299.1,1296.6V939.4h17.9c25.4,0,49.5,4.5,72,13.5c22.9,9.4,42.7,22,59.2,37.9
		c16.6,16.1,29.7,35,39,56.6c9.4,21.6,14.1,44.9,14.1,69.8c0,25.4-4.5,48.9-13.6,70.4c-9.4,22.2-22.3,41.4-38.6,57.5
		c-16.9,16.8-36.4,29.4-58.7,38.1c-22.4,9-46.4,13.4-72,13.4H1299.1z"/>
	<path class="st0" d="M820.7,1525.9c0.2,10.9-2.7,23.8-8.9,38.7c-5.5,13.1-12.9,19.8-22.2,19.9c-1.2,0-5.5-1.4-13-4.2
		c-0.5,2.8-1,5.8-1.7,9.3c-0.7,3.5-1.5,7.3-2.4,11.5c-1.9,5.7-3.6,10.5-5.1,14.6c-1.6,3.9-2.9,6.9-4.1,8.9
		c-4.8,8.1-10.7,12.1-17.8,12.2c-18,0.3-27.3-17.9-27.9-54.6c-0.4-23.4,1.3-39.3,5.1-47.5v0.7c0-0.5-0.2-1.6-0.4-3.3
		c-0.3-1.7-0.4-3.1-0.4-4.1l0-2.5c0.2-2.3,0.9-3.9,2.1-5.2c0.5-1.3,0.9-3.2,1.3-5.6c0.5-2.5,1.2-5.8,2.1-10
		c1.6-8.4,5.7-12.7,12.4-12.8c6.3,0,13,2.5,20,7.9c7.2,5.3,11.9,10.7,14,16.4c2.1,5.9,3.4,23.8,3.9,53.6c3.5,2.7,6.6,3.9,9.3,3.9
		c8.6,0,14.9-5.1,19-14.7c1.8-3.7,4.2-13.4,7.2-29.4c0.8-4.4,2.3-6.7,4.3-6.7C819.6,1522.6,820.7,1523.7,820.7,1525.9z
		 M765.9,1581.7c0-2.6-0.4-6-0.9-10c-0.6-3.9-1.4-8.5-2.4-13.6c-1.1-5.2-1.9-9.7-2.5-13.5c-0.6-3.8-0.8-7.1-0.9-9.8
		c0-1.8,0.1-4.4,0.4-8.1c0.2-3.8,0.4-6.5,0.4-8.2c-0.2-8.7-4.1-12.9-12-12.7c-5.2,0-9.6,11.7-13,35c-3.3,20-5,35.2-4.8,45.5
		c0.5,26.7,6.1,39.8,16.9,39.7c2.7-0.1,6.2-5.1,10.5-15C763.3,1598.1,766,1588.3,765.9,1581.7z"/>
	<path id="XMLID_2171_" class="st0" d="M865.1,1632.1c-7.6,0.2-14.1-4-19.4-12.6c-2.3-3.6-3.7-11.1-4.1-22.5
		c-0.6-8.4-0.8-19.9-0.6-34.4l0.2-29.7c-0.1-5.9-6.2-11.8-18.4-17.8c0.2,6.2-2.6,19.4-8.2,39.8c0,0.3-0.6,1.6-1.8,3.9
		c-1.2,2.3-1.8,3.7-1.8,3.9l-4.8-1.4c-0.1-3.9,1.2-11.7,4.1-23.3c2.9-11.2,4.4-19.9,4.3-26.4c-0.1-2.4-1.1-6.7-3.2-12.6
		c-2.1-5.8-3.1-10.1-3.1-12.8c-0.3-12.4,2.7-18.6,8.8-18.7c4.9-0.1,7.6,3.7,8.1,11.4c0.2,1.4,0.3,3.1,0.2,5c-0.1,1.8-0.2,4-0.4,6.5
		c-0.2,2.9-0.4,5.4-0.5,7.4c-0.1,2-0.1,3.5-0.1,4.5c0,2.5,5.4,6.3,15.8,11.6c10.6,5.2,16.1,11.4,16.2,18.6c0.1,4.2-0.1,9.3-0.5,15.4
		c-0.4,6.1-1,13.2-1.9,21.4c-0.8,7.9-1.4,14.9-1.8,20.9c-0.4,6-0.6,11.1-0.5,15.3c0.2,11.6,3.8,17.3,11,17.2
		c4.2-0.1,10.5-13.2,18.9-39.2c8-24.2,12.5-41.9,13.8-53.6c0.7-5.6,2.3-8.6,5-8.6c2-0.1,3,1.8,3.1,5.5c0.1,8.4-4.3,27.2-13.5,56.5
		C879.8,1615.7,871.4,1632,865.1,1632.1z"/>
	<path class="st0" d="M977.4,1661.6c-21.3,0.4-32.1,1.5-32.1,3.2c0,1.5,0.1,3.6,0.3,6.3c0.2,2.7,0.3,5.5,0.4,8.5
		c0.1,2.9,0.2,5.8,0.3,8.5c0.2,2.7,0.3,4.8,0.3,6.3c0.4,24.1-1.8,42.2-6.5,54.2c-7.1,17.7-21.1,26.6-42,27
		c-15.7,0.2-29.8-5-41.9-15.9c-12.5-10.6-18.9-23.7-19.2-39.2c-0.4-21,21.1-39.5,64.5-55.5c8.8-1.9,19.4-5.1,31.9-9.5
		c-0.1-2.2-0.2-5-0.6-8.2c-0.3-3.4-0.7-7.4-1.3-12c-0.9-8.9-1.4-15.6-1.5-20c-1,0.4-3.8,4.5-8.2,12.8c-4.4,7.9-8.8,12-13.5,12
		c-8.6,0.2-15.1-4.4-19.5-13.7c-3.5-7.6-5.4-16-5.6-25.4c-0.3-16.2,3-38.4,9.9-66.4c7.2-29.2,14.1-43.8,21.1-43.9
		c5-0.2,11.8,4.8,20.6,14.8c9.5,10.6,17.3,16.8,23.2,18.4c-5.9,11.5-10.4,27.3-13.5,47.7c-1.1,7.9-2,15.2-2.6,22.1
		c-0.7,6.8-0.9,13.1-0.8,19c0.1,2.6,0.4,7.4,0.8,14c0.5,6.6,1.3,15.5,2.5,26.6c9-1.1,16.8-2,23.2-2.4c6.4-0.5,11.3-0.8,14.8-0.9
		c10.8-0.1,16.3,3.1,16.4,9.4c0,4.2-2.6,6.4-8,6.4C987.3,1665.5,982.9,1664.2,977.4,1661.6z M935,1666.5c-15,0.2-26.9,2.1-35.8,5.7
		c-12.6,5.7-23.5,12.2-32.4,19.8c-12.6,10.5-18.9,21-18.6,31.4c0.1,11.6,5.1,21.4,14.8,29.4c9.3,7.9,19.8,11.9,31.7,11.6
		c29-0.5,43.1-22.9,42.3-67.3c0-0.5-0.2-3.3-0.5-8.3C936.2,1683.8,935.7,1676.3,935,1666.5z M937.9,1530.9c-0.3-16.1-7-23.9-20-23.7
		c-2.5,0-6.6,11.5-12.3,34.6c-6.7,26-9.8,47.8-9.6,65.3c0.3,15.8,3.5,23.6,9.7,23.4c6.9-0.1,14.2-13.1,21.8-38.8
		C934.7,1568,938.1,1547.7,937.9,1530.9z"/>
	<path class="st0" d="M1037,1628.3c-9.1,0.1-16.7-8.7-22.9-26.6c-6,23.1-14,34.7-24.1,34.9c-14.5,0.2-21.8-17.6-21.6-53.7
		c0.3-9.7,3.1-25.7,8.4-48.3c6.7-25.8,12.5-38.7,17.4-38.7c10.9-0.3,17.7,2.5,20.9,8.1l6.8,13.2l13,4.3c-5.8,18-9.7,40.2-11.4,66.4
		c-0.4,5.7,0.2,11.6,1.7,17.8c2.2,8.6,5.3,12.8,9.5,12.8c8.4-0.2,19.3-30.7,32.8-91.6c1.4-5.7,3-8.6,5-8.6c2,0,3,1.8,3,5.5
		c0.2,9.1-4,27.9-12.7,56.2C1053,1612.1,1044.4,1628.3,1037,1628.3z M1012.7,1525.2c-1.2-11.3-4.3-16.9-9.5-16.8
		c-4.2,0.1-7.8,6-10.8,18c-0.9,2.7-2,6.3-3.2,10.7c-1.1,4.5-2.5,9.6-4.1,15.2c-3.7,15.2-5.4,33.8-5,56c0,4.2,1,8.1,2.8,11.8
		c2.3,4.7,5.2,7,8.6,7c4.6-2.9,9.4-12.4,14.3-28.8c1.8-6.4,3.5-12.4,4.9-18c1.3-5.6,2.3-10.6,2.7-15l3.9-34.1L1012.7,1525.2z"/>
	<path id="XMLID_2165_" class="st0" d="M1179.9,1521.9c0.2,6.8-3.9,23.8-12.1,50.5c-11.1,35.9-20.3,54-27.5,54.2
		c-9.2,0.1-15.6-8.5-19.3-26c-1.1-4.9-2-12.6-3-23.1c-0.9-10.4-1.8-24-2.8-40.5c-1.2,4.4-3.4,12.7-6.5,24.7
		c-3.1,12-6.9,28-11.5,48.1c-2.2,10.6-6,16-11.1,16.1c-7.6,0.1-12.4-5-14.3-15.3l-2-27.6c-1-10.9-1.1-20.8-0.5-29.7l0.9-13.7l-3.5-7
		c0.1-6.7,0.7-11.1,1.6-13.3c1.5-4,4.5-6.1,9.2-6.1c4.9-0.1,7.4,2.1,7.5,6.5c0.1,1.5-0.8,4.8-2.4,9.7c-1.4,4.9-2.1,9-2,11.9
		c0,2.3,0,5,0.1,8.5c0,3.2,0,7-0.2,11.4c-0.1,4.5-0.2,8.5-0.1,11.9c0,3.2,0.1,5.9,0.1,8.1c0.3,17.7,2.5,26.6,6.3,26.5
		c1.2,0,2.8-3.2,4.6-9.7c3.2-14.3,5.7-23.8,7.3-28.2c3.3-11.2,5.9-21.5,8-30.9c2-9.4,3.2-18.3,3.6-26.7c0.5-10.4,2.2-16.6,4.9-18.6
		c12.5,0.5,18.9,4.4,19,11.5c-0.1-5.4-0.5-6.5-1.1-3c-0.7,3.5-1.6,11.5-2.6,24.1c-1,12.4-1.8,22.4-2.3,30.2
		c-0.5,7.8-0.7,13.4-0.6,16.9c0.4,26.7,4.1,39.9,11,39.8c5.9-0.1,12.9-13.3,20.7-39.6c2.4-7.6,4.5-15.3,6.5-22.8
		c1.9-7.5,3.7-15.2,5.3-22.9c1.5-7.7,3.5-11.6,5.7-11.6C1178.9,1516.3,1179.8,1518.2,1179.9,1521.9z"/>
	<path class="st0" d="M1228.6,1520.7c0.2,6.2-3.9,23.4-12,51.6c-6,20.3-9.9,32.5-11.6,36.5c-4.7,11-10.5,16.5-17.4,16.7
		c-7.6,0.1-13.3-4.3-17.2-13.1c-2.8-7.4-4.4-15.1-4.5-23.2c-0.1-4.5,0-10,0.4-16.7c0.3-6.7,0.9-14.6,1.8-23.6
		c0.8-9.2,1.4-17.2,1.8-24c0.3-6.8,0.5-12.4,0.4-16.9c1.7-1.7,4.2-2.6,7.3-2.6c6.4-0.1,9.6,1.6,9.7,4.9c-0.4,2-1.1,4.9-1.9,8.4
		c-0.8,3.6-1.8,8.1-2.9,13.5c-4.3,22.5-6.2,41.8-6,57.5c0.3,16.5,4.1,24.8,11.5,24.6c3.5,0,7.6-6.2,12.2-18.7
		c0.2-0.3,4-12.9,11.5-38c1.2-3.9,2.4-8.6,3.9-14.1c1.4-5.4,2.9-11.7,4.5-18.8c1.3-6,3-9.1,5-9.1
		C1227.4,1515.5,1228.6,1517.2,1228.6,1520.7z M1196.6,1420.9c0.2,9.2-2.8,13.7-9,13.8c-3.9,0.1-7.4-1.4-10.4-4.6
		c-3-3.2-4.5-6.7-4.6-10.7c0-2.4,1.2-5,3.7-7.8c2.6-2.8,5.1-4.2,7.5-4.2C1192.2,1407.3,1196.4,1411.8,1196.6,1420.9z"/>
	<path id="XMLID_2162_" class="st0" d="M1286.5,1514.5c1.9,0,3,2.1,3,6.2c0.1,3.9-1.9,14.1-6.1,30.5c-5.3,20.5-9.5,35-12.6,43.4
		c-8.2,20.9-17.2,31.5-26.8,31.5c-11.6,0.3-20-6-25.4-18.8c-3.6-9.5-5.6-20.8-5.8-33.9c-0.2-13.1,1.9-28.9,6.2-47.5
		c5.7-24,13-36.2,21.9-36.3c3.4,0,7.3,2.5,11.6,7.5c4.3,5.4,6.5,9.8,6.5,13.2c0.1,5.9-2,9-6.1,9c-3.2,0-7.7-2-13.4-6.1
		c-10,12.5-14.5,37-13.9,73.5c0.1,5.7,1.2,11.5,3.3,17.4c2.6,7.6,6.5,11.3,11.6,11.3c14.1-0.2,26.7-27,38.1-80.2
		c1.8-9.2,2.8-14.2,3.1-15.2C1282.7,1516.4,1284.3,1514.5,1286.5,1514.5z"/>
	<rect id="XMLID_2161_" x="999.2" y="1199.8" class="st0" width="7.4" height="309.1"/>
	<path id="XMLID_2160_" class="st0" d="M1007.4,1199.6c-21.4-17.4-49.8-40.7-57.9-67.9c-4.8-15.6,15.8-19.4,26.4-11.3
		c7.7,6,11.7,16.5,14.9,25.3c6.2,17,9,37,7.8,55.1c-0.2,1.5,6.6,0.2,7.1-1.5c3-11.5,9.7-22,16.4-31.6c4.1-5.7,9-11,14.5-15.5
		c14.7-12,20.5,9.2,22.2,18.1c5,27.9-54.4,25-71.7,31.7c-4.8,1.8-0.3,3,2.5,1.9c19.3-7.5,102.4-7.6,70.7-51.4
		c-21.5-29.7-57.3,31.4-61.6,47.9c2.3-0.6,4.7-1.1,7-1.5c1.7-23.2-2.4-53.8-16.3-73.2c-9.3-12.7-27.5-19.7-41.5-8.7
		c-26.3,21,38.4,73.2,53,85C1002.3,1203.4,1008.7,1200.7,1007.4,1199.6z"/>
	<path id="XMLID_2159_" class="st0" d="M999.7,1196.1c7.7,13.5,17.3,25.4,28.3,36.5c2,2,8.8-0.7,6.6-2.9
		c-10.9-11-20.5-23.1-28.4-36.5C1004.8,1190.7,998,1193.1,999.7,1196.1z"/>
	<path class="st0" d="M1546,1010.1c-7.7,7.4-16.8,11.1-27.5,11.1c-11.1,0-20.3-3.8-27.9-11.4c-7.5-7.6-11.3-16.8-11.3-27.9
		c0-11.5,4.1-21,12.2-28.6c7.7-7.1,16.6-10.7,27-10.7c10.8,0,20.1,3.9,27.7,11.5c7.7,7.6,11.5,16.9,11.5,27.7
		C1557.8,993.1,1553.9,1002.5,1546,1010.1z M1495.5,959.2c-6.2,6.4-9.4,14-9.4,22.8c0,9.1,3.2,16.8,9.5,23.1
		c6.3,6.4,14,9.6,22.9,9.6c8.9,0,16.5-3.2,22.8-9.6c6.3-6.4,9.5-14.1,9.5-23.1c0-8.7-3.1-16.3-9.4-22.8c-6.4-6.5-14-9.8-22.9-9.8
		C1509.5,949.4,1501.8,952.7,1495.5,959.2z M1501.3,1003.8v-43.5c2.7,0,6.8,0,12.1,0c5.4,0.1,8.4,0.1,9,0.1c3.5,0.2,6.3,1,8.6,2.2
		c3.8,2.1,5.8,5.6,5.8,10.4c0,3.7-1,6.3-3.1,7.9c-2.1,1.6-4.5,2.6-7.5,2.9c2.7,0.6,4.8,1.4,6.2,2.5c2.6,2.1,3.8,5.4,3.8,9.8v3.9
		l0.1,1.3l0.3,1.2l0.4,1.2h-10.8c-0.4-1.4-0.6-3.4-0.7-6c-0.2-2.6-0.4-4.3-0.8-5.3c-0.6-1.5-1.6-2.6-3.2-3.2
		c-0.8-0.3-2.1-0.6-3.8-0.7l-2.6-0.2h-2.4v15.4H1501.3z M1522.1,968.9c-1.6-0.6-3.7-0.9-6.6-0.9h-2.8v12.6h4.4
		c2.7,0,4.7-0.5,6.2-1.6c1.5-1.1,2.2-2.8,2.2-5.2C1525.6,971.5,1524.4,969.8,1522.1,968.9z"/>
	<path id="XMLID_2154_" class="st1" d="M653.3,364.2v265.7H345.1c-54.4,0-104.7-13.7-151.2-41.2c-46.5-27-83.7-64-111.6-111.2
		c-28-46.8-41.9-97.2-41.9-151.3c0-42.8,8.1-82.4,24.4-119.1c15.7-36.7,38.5-68.9,68.2-96.7c29.5-27.7,63.7-49,102.8-63.7
		c38.9-14.8,81.2-22.2,126.9-22.2h289.9v263.6L386.6,34.4v582.8L653.3,364.2z"/>
	<g>
		<defs>
			<rect id="XMLID_2141_" x="456.4" y="251.5" width="540.6" height="444.7"/>
		</defs>
		<clipPath id="XMLID_2_">
			<use xlink:href="#XMLID_2141_"  style="overflow:visible;"/>
		</clipPath>
		<path class="st2" d="M652.6,253.8c10.8-1.4,21.9-2.2,33.2-2.3h0C674.5,251.6,663.4,252.4,652.6,253.8L652.6,253.8z M456.4,471.9
			c0.2-30.8,5.9-59.7,17.2-86.8c11.8-27.6,27.7-51.3,48.3-70.8c21.1-20.1,45.8-35.5,74.2-46.3c8.7-3.3,17.6-6.1,26.6-8.4l0,0
			c-9,2.3-17.9,5.1-26.6,8.4c-28.4,10.8-53.1,26.2-74.2,46.3c-20.5,19.5-36.5,43.2-48.3,70.8C462.2,412.2,456.5,441.1,456.4,471.9
			L456.4,471.9z M466.6,541.4L466.6,541.4c-6.7-21.2-10.1-43.4-10.2-66.5C456.5,498,459.9,520.2,466.6,541.4z M671.8,696.2
			L671.8,696.2c-38.7-0.3-74.4-10.3-107-30c-17-10.2-32.3-22.2-45.8-36.3h0c13.5,14.1,28.8,26.1,45.8,36.3
			C597.4,685.9,633.1,695.9,671.8,696.2z"/>
		<path id="XMLID_2149_" class="st3" d="M652.6,253.8C652.6,253.8,652.6,253.8,652.6,253.8L652.6,253.8
			C652.6,253.8,652.6,253.8,652.6,253.8L652.6,253.8z"/>
		<path id="XMLID_2148_" class="st3" d="M671.8,696.2h35.7V251.5l-21.8,0c-11.3,0.1-22.3,0.9-33.2,2.3c0,0,0,0,0,0l0,34.3
			l-29.9-28.6c-9,2.3-17.9,5.1-26.6,8.4c-28.4,10.8-53.1,26.2-74.2,46.3c-20.5,19.5-36.5,43.2-48.3,70.8c-11.3,27.1-17,56-17.2,86.8
			v3c0.1,23.1,3.5,45.2,10.2,66.5l186.7-177.2v265.7H519c13.5,14.1,28.8,26.1,45.8,36.3C597.5,685.9,633.2,695.9,671.8,696.2z"/>
		<path class="st4" d="M652.6,288.1v-34.3v0c-10.2,1.3-20.1,3.3-29.9,5.8l0,0L652.6,288.1z M519,629.9L519,629.9h134.3V364.2
			L466.6,541.4l0,0c4.7,14.9,11,29.3,18.9,43.3C495.1,601.6,506.3,616.6,519,629.9z"/>
		<polygon id="XMLID_2145_" class="st2" points="745.1,696.2 745.2,696.2 745.2,251.5 745.1,251.5 745.1,696.3 		"/>
		<path id="XMLID_2144_" class="st3" d="M745.2,696.2h26.2c31-0.3,60.2-5.8,87.3-16.7c27.8-10.8,52.2-26.6,73.1-47.5
			c20.4-20,36.4-43.9,48.1-71.6c11.1-26.2,16.8-54.8,17-85.7c-10.4-2-20.6-4.9-30.6-8.6c-10.8-4-21.3-9.1-31.6-15.1
			c-5.4-3.1-10.6-6.5-15.6-10c-23.5-16.6-42.9-37.7-58.1-63.4c-18.1-30.4-27.3-63.1-27.6-98v0c0-0.7,0-1.3,0-2c0-0.7,0-1.4,0-2.1v0
			c0-5.1,0.3-10.2,0.7-15.2c-20.5-5.8-42-8.7-64.4-8.9h-24.5V696.2L745.2,696.2z"/>
		<path class="st3" d="M833.4,279.7v-4c0,0.7,0,1.4,0,2.1C833.4,278.4,833.4,279,833.4,279.7z M966.4,466.3
			c-10.8-4-21.3-9.1-31.6-15.1c-5.4-3.1-10.6-6.5-15.7-10c5,3.5,10.2,6.9,15.6,10C945,457.2,955.6,462.2,966.4,466.3z"/>
	</g>
	<g>
		<defs>
			<rect id="XMLID_2126_" x="833.4" y="78.3" width="405" height="400"/>
		</defs>
		<clipPath id="XMLID_3_">
			<use xlink:href="#XMLID_2126_"  style="overflow:visible;"/>
		</clipPath>
		<path class="st5" d="M1237.9,252.6L1237.9,252.6L1062.2,84.9L1237.9,252.6z M834.1,260.4c1.8-21.7,6.9-42.2,15.4-61.4
			c10.4-24.2,25.5-45.6,45.1-63.9c19.5-18.4,42-32.4,67.9-42.1c25.7-9.8,53.7-14.7,83.9-14.7h0c-30.3,0-58.2,4.9-83.9,14.7
			c-25.8,9.7-48.4,23.8-67.9,42.1c-19.6,18.3-34.7,39.7-45.1,63.9C841,218.2,835.8,238.7,834.1,260.4L834.1,260.4z M1062.2,470.1
			l23.2-22v0L1062.2,470.1z M1034.7,478.4h49.5H1034.7c-12.9,0-25.5-1.2-37.7-3.5v0C1009.2,477.2,1021.8,478.4,1034.7,478.4z"/>
		<path class="st6" d="M834.1,260.4L834.1,260.4L834.1,260.4L834.1,260.4L834.1,260.4z M997,474.8L997,474.8
			C997,474.8,997,474.8,997,474.8L997,474.8C997,474.8,997,474.8,997,474.8z"/>
		<path id="XMLID_2134_" class="st6" d="M1034.8,478.4h49.4c-0.2-3-0.3-6-0.3-9c0-7.3,0.5-14.4,1.5-21.3l-23.2,22V84.9l175.7,167.7
			V78.3h-191.5c-30.3,0-58.2,4.9-83.9,14.7c-25.8,9.7-48.4,23.8-67.9,42.1c-19.6,18.3-34.7,39.7-45.1,63.9
			c-8.5,19.2-13.6,39.7-15.4,61.4l0,0c7.8,2.2,15.4,4.8,22.9,7.7c28.6,11.8,53.2,27.4,73.8,47.2c20.8,20.1,37,43.6,48.7,70.6
			c11.7,26.9,17.6,56,17.6,87c0,0.6,0,1.3,0,1.9c0,0,0,0,0,0C1009.3,477.2,1021.8,478.4,1034.8,478.4z"/>
		<path class="st7" d="M833.4,275.7c0-5.1,0.3-10.2,0.7-15.2l0,0C833.7,265.4,833.4,270.5,833.4,275.7L833.4,275.7z M919.2,441.1
			c-23.5-16.6-42.9-37.7-58.1-63.4c-18.1-30.4-27.3-63.1-27.7-98v0c0.3,34.9,9.6,67.6,27.6,98C876.3,403.4,895.6,424.5,919.2,441.1z
			 M997,474.8L997,474.8c-10.4-2-20.6-4.9-30.6-8.6C976.3,470,986.5,472.8,997,474.8z"/>
		<path id="XMLID_2130_" class="st7" d="M997,474.8c0-0.6,0-1.3,0-1.9c0-31-5.9-60.1-17.6-87c-11.6-26.9-27.9-50.4-48.7-70.6
			c-20.6-19.8-45.2-35.4-73.8-47.2c-7.5-3-15.1-5.6-22.9-7.7c-0.4,5-0.6,10.1-0.7,15.2v4c0.3,34.9,9.6,67.6,27.7,98
			c15.2,25.7,34.6,46.8,58.1,63.4c5,3.5,10.2,6.9,15.7,10c10.2,6.1,20.8,11.1,31.6,15.1C976.3,470,986.5,472.8,997,474.8z"/>
		<polygon id="XMLID_2129_" class="st5" points="1210.4,329.4 1210.4,329.4 1238.4,302.8 1238.4,302.8 		"/>
		<path id="XMLID_2128_" class="st6" d="M1210.4,329.4c6.4-0.8,12.9-1.2,19.6-1.2h0c0.4,0,0.9,0,1.3,0h7.1v-25.3L1210.4,329.4z"/>
		<path id="XMLID_2127_" class="st6" d="M1230,328.1h8.4v0h-7.1C1230.9,328.1,1230.4,328.1,1230,328.1z"/>
	</g>
	<g>
		<defs>
			<rect id="XMLID_2112_" x="1083.9" y="328.1" width="343.6" height="282.8"/>
		</defs>
		<clipPath id="XMLID_4_">
			<use xlink:href="#XMLID_2112_"  style="overflow:visible;"/>
		</clipPath>
		<path id="XMLID_2125_" class="st8" d="M1222.3,610.9h21.4H1222.3c-25.2,0-48.2-6.4-69.3-19.2c-21.2-12.5-37.9-29.7-50.5-51.7
			c-10.9-19.2-17-39.9-18.3-61.7h0c1.3,21.9,7.4,42.5,18.3,61.7c12.5,21.9,29.3,39.1,50.5,51.7
			C1174.1,604.5,1197.1,610.9,1222.3,610.9z"/>
		<path id="XMLID_2124_" class="st9" d="M1222.3,610.9h21.4V328.1l-5.4,0v150.2h-154.1c1.3,21.9,7.4,42.5,18.3,61.7
			c12.6,21.9,29.3,39.1,50.5,51.7C1174.1,604.5,1197.1,610.9,1222.3,610.9z"/>
		<path id="XMLID_2123_" class="st8" d="M1085.4,448L1085.4,448c1.7-12.2,4.9-23.8,9.5-35c7.5-17.6,17.7-32.6,30.7-45
			c13.4-12.6,29.2-22.5,47.2-29.3c12.1-4.6,24.6-7.8,37.6-9.3l0,0c-13,1.6-25.6,4.7-37.7,9.3c-18,6.8-33.8,16.7-47.2,29.3
			c-13,12.4-23.2,27.4-30.7,45C1090.3,424.2,1087.1,435.9,1085.4,448z"/>
		<path id="XMLID_2122_" class="st9" d="M1085.4,448l125-118.6c-13,1.6-25.6,4.7-37.6,9.3c-18,6.8-33.8,16.7-47.2,29.3
			c-13,12.4-23.2,27.4-30.7,45C1090.3,424.2,1087.1,435.8,1085.4,448z"/>
		<path class="st10" d="M1210.4,329.4C1210.4,329.4,1210.4,329.4,1210.4,329.4L1210.4,329.4L1210.4,329.4L1210.4,329.4z M1085.4,448
			L1085.4,448L1085.4,448L1085.4,448L1085.4,448z"/>
		<path class="st11" d="M1210.4,329.4c6.4-0.8,12.9-1.2,19.6-1.2h0C1223.3,328.2,1216.8,328.6,1210.4,329.4L1210.4,329.4z
			 M1084.2,478.4L1084.2,478.4c-0.1-3-0.2-6-0.2-9c0-7.3,0.5-14.4,1.5-21.3l0,0c-1,6.9-1.5,14-1.5,21.3
			C1084,472.3,1084,475.4,1084.2,478.4z"/>
		<path id="XMLID_2117_" class="st11" d="M1084.3,478.4h154.1V328.1h-8.4c-6.6,0-13.2,0.5-19.6,1.2c0,0,0,0,0,0l-125,118.6l0,0
			c-1,6.9-1.5,14.1-1.5,21.3C1084,472.3,1084.1,475.4,1084.3,478.4z"/>
		<polygon id="XMLID_2116_" class="st8" points="1267.6,610.9 1282.8,610.9 1267.6,610.9 1267.6,328.1 1267.6,328.1 		"/>
		<path id="XMLID_2115_" class="st9" d="M1267.6,610.9h15.1c2.3,0,4.5,0,6.8-0.1l36.3-86.1h0h40.8l-19.7-48.2l43.1-103
			c-1.5-1.6-3.1-3.2-4.7-4.7c-13-12.5-28.7-22.5-46.8-30c-17.4-6.9-36-10.5-55.7-10.7h-15.4V610.9z"/>
		<path id="XMLID_2114_" class="st9" d="M1353.7,594c11.9-6.2,22.7-14.1,32.4-23.6l-5.1-12.3h-42L1353.7,594z"/>
		<path id="XMLID_2113_" class="st9" d="M1353.7,594C1353.7,594,1353.7,594,1353.7,594l-14.7-35.9h0L1353.7,594z"/>
	</g>
	<g>
		<defs>
			<rect id="XMLID_2099_" x="1228" y="295.2" width="531.7" height="461.5"/>
		</defs>
		<clipPath id="XMLID_5_">
			<use xlink:href="#XMLID_2099_"  style="overflow:visible;"/>
		</clipPath>
		<polygon id="XMLID_2111_" class="st12" points="1228,756.7 1420.6,756.7 1228,756.7 1289.6,610.8 1289.6,610.8 		"/>
		<polygon id="XMLID_2110_" class="st13" points="1289.6,610.8 1289.6,610.8 1289.6,610.8 1289.6,610.8 		"/>
		<path id="XMLID_2109_" class="st13" d="M1228,756.7h192.6L1353.7,594c-4.5,2.3-9.2,4.4-14,6.3c-15.7,6.3-32.4,9.8-50.1,10.5l0,0
			L1228,756.7z"/>
		<path class="st12" d="M1390.2,373.5l32.8-78.3l0,0L1390.2,373.5L1390.2,373.5z M1463.6,756.7h296.1H1463.6l-77.5-186.4
			c0,0,0,0,0,0L1463.6,756.7z"/>
		<path class="st13" d="M1390.2,373.6L1390.2,373.6L1390.2,373.6L1390.2,373.6L1390.2,373.6L1390.2,373.6z M1386.1,570.3
			C1386.1,570.3,1386.1,570.3,1386.1,570.3L1386.1,570.3L1386.1,570.3L1386.1,570.3z"/>
		<path id="XMLID_2104_" class="st13" d="M1463.6,756.7h296.1l-198.7-461.5l-137.9,0l-32.8,78.3l0,0c11,11.7,19.8,25,26.3,40.1
			c7.2,16.6,10.9,34.4,11.1,53.5v3.6c-0.2,19.4-3.7,37.3-10.7,53.8c-7.4,17.7-17.6,32.7-30.6,45.5c-0.1,0.1-0.1,0.1-0.2,0.2l0,0
			L1463.6,756.7z"/>
		<path class="st14" d="M1366.7,524.7L1366.7,524.7l-19.6-48.2l43.1-103l0,0l-43.1,103L1366.7,524.7z M1386.1,570.3L1386.1,570.3
			l-5.1-12.3h-42.1h42L1386.1,570.3z M1289.6,610.8L1289.6,610.8l36.4-86.1h0L1289.6,610.8z"/>
		<path id="XMLID_2100_" class="st14" d="M1289.6,610.8c17.8-0.7,34.4-4.2,50.1-10.5c4.8-1.9,9.5-4,14-6.3l-14.8-35.9h0h42.1
			l5.1,12.3c0.1-0.1,0.1-0.1,0.2-0.2c13-12.8,23.2-27.9,30.6-45.5c7-16.5,10.5-34.4,10.7-53.8v-3.6c-0.2-19.1-3.9-36.9-11.1-53.5
			c-6.5-15.1-15.3-28.5-26.3-40.1l-43.1,103l19.7,48.2h0h-40.8L1289.6,610.8z"/>
	</g>
	<g>
		<defs>
			<rect id="XMLID_2095_" x="44.8" y="749.6" width="565.6" height="508.5"/>
		</defs>
		<clipPath id="XMLID_6_">
			<use xlink:href="#XMLID_2095_"  style="overflow:visible;"/>
		</clipPath>
		<path class="st15" d="M338.3,1245.5l104.3-91.8v0L338.3,1245.5L338.3,1245.5z M44.8,1258L44.8,1258l0-508.5l0,0V1258L44.8,1258z"
			/>
		<path id="XMLID_2096_" class="st16" d="M44.8,1258h426.6c-0.9-1.5-1.8-3-2.6-4.5c-17.2-30.4-26-63.2-26.2-98.3v-1.6l-104.3,91.8v0
			l0,0V749.6l-293.4,0V1258L44.8,1258z"/>
	</g>
	<g>
		<defs>
			<rect id="XMLID_2085_" x="442.6" y="955" width="484.5" height="398.6"/>
		</defs>
		<clipPath id="XMLID_7_">
			<use xlink:href="#XMLID_2085_"  style="overflow:visible;"/>
		</clipPath>
		<path class="st17" d="M442.6,1153.6L442.6,1153.6c0-28.1,5.3-54.4,15.5-79c10.5-24.9,24.8-46.1,43.1-63.5
			c19-18,41.2-31.8,66.6-41.4c25.9-9.8,53.4-14.8,82.5-14.8h0c-29.1,0-56.6,4.9-82.5,14.8c-25.5,9.7-47.6,23.5-66.6,41.4
			c-18.3,17.4-32.6,38.7-43.1,63.5c-10.1,24.2-15.3,50.1-15.5,77.7V1153.6z M635.6,1353.5L635.6,1353.5c-34.6-0.3-66.6-9.3-95.8-27
			c-28.3-16.8-51-39.7-68.3-68.5h0c17.3,28.8,40.1,51.8,68.3,68.5C569.1,1344.2,601,1353.2,635.6,1353.5z"/>
		<polygon id="XMLID_2092_" class="st17" points="471.5,1258 471.5,1258 471.5,1258 471.5,1258 		"/>
		<path id="XMLID_2091_" class="st17" d="M635.7,1353.5h32.1V955h-17.4c-29.1,0-56.6,4.9-82.5,14.8c-25.4,9.7-47.6,23.5-66.6,41.4
			c-18.3,17.4-32.6,38.7-43.1,63.5c-10.3,24.6-15.5,50.8-15.5,79l167.8-147.7l0,252.1H471.5l0,0c17.3,28.8,40.1,51.8,68.3,68.5
			C569.1,1344.2,601,1353.2,635.7,1353.5z"/>
		<polygon id="XMLID_2090_" class="st18" points="442.6,1153.7 442.6,1153.6 442.6,1153.6 442.6,1153.6 		"/>
		<path id="XMLID_2089_" class="st19" d="M471.5,1258L471.5,1258c-0.9-1.5-1.7-3-2.6-4.5c-17.5-30.8-26.3-64.1-26.3-99.7
			c0-0.1,0-0.2,0-0.2l0,0v1.6c0.2,35.1,9,67.8,26.2,98.3C469.7,1255.1,470.6,1256.6,471.5,1258z"/>
		<path id="XMLID_2088_" class="st19" d="M471.5,1258h138.9v-252.1l-167.8,147.7v0c0,0.1,0,0.2,0,0.2c0,35.6,8.8,68.8,26.3,99.7
			C469.7,1255.1,470.6,1256.6,471.5,1258z"/>
		<polygon id="XMLID_2087_" class="st17" points="701.4,1353.5 701.5,1353.5 701.5,955 701.4,955 701.4,1353.5 		"/>
		<path id="XMLID_2086_" class="st17" d="M701.5,1353.5h23.6c27.7-0.2,53.8-5.2,78.1-15c24.9-9.7,46.7-23.8,65.5-42.5
			c18.3-18,32.7-39.4,43.1-64.2c3.5-8.2,6.3-16.6,8.6-25.3c-17.9-4.5-35-11.6-51.4-21.3c-30.4-17.6-54.9-41.9-73.2-72.8
			c-18.3-30.7-27.5-63.8-27.5-99.2c0-18.1,2.2-35.3,6.7-51.8c-17.1-4.3-35-6.4-53.7-6.4h-19.9V1353.5L701.5,1353.5z"/>
	</g>
	<g>
		<defs>
			<rect id="XMLID_2061_" x="768.3" y="815.3" width="402.1" height="396.9"/>
		</defs>
		<clipPath id="XMLID_8_">
			<use xlink:href="#XMLID_2061_"  style="overflow:visible;"/>
		</clipPath>
		<path class="st20" d="M784.3,935c10.4-24.1,25.2-45.2,44.8-63.4c19.3-18.2,41.8-32.1,67.5-41.9c25.6-9.7,53.2-14.5,83.3-14.5h0
			c-30,0-57.7,4.8-83.3,14.5c-25.7,9.8-48.1,23.7-67.4,41.9C809.5,889.9,794.7,910.9,784.3,935z M775,961.4c2.4-9,5.5-17.8,9.3-26.3
			C780.5,943.6,777.4,952.3,775,961.4C775,961.4,775,961.4,775,961.4z M1148.5,967.7C1148.5,967.7,1148.5,967.7,1148.5,967.7
			l-153-145.9v0L1148.5,967.7z M1055.2,1147.4l12.8-12.1l0,0L1055.2,1147.4L1055.2,1147.4z M1007.7,1192.5l43.2-41c0,0,0,0,0,0
			L1007.7,1192.5L1007.7,1192.5z M995.5,1204l2.5-2.4l0,0L995.5,1204L995.5,1204z M968.2,1212.3h30.9H968.2
			c-16.4,0-32.4-1.9-47.8-5.8l0,0C935.9,1210.4,951.8,1212.3,968.2,1212.3z"/>
		<path class="st21" d="M775,961.4L775,961.4C775,961.4,775,961.4,775,961.4L775,961.4L775,961.4L775,961.4z M920.5,1206.5
			L920.5,1206.5L920.5,1206.5L920.5,1206.5C920.5,1206.5,920.5,1206.5,920.5,1206.5z"/>
		<path class="st21" d="M995.5,1189.8v-27.4c-1.3-5.8-2.9-11.4-4.8-16.8c-3.2-8.8-7.2-19.3-14.9-25.3c-3.6-2.8-8.4-4.1-12.9-4.1
			c-8.8,0-16.6,5.2-13.5,15.5C956.1,1154,976.6,1173.8,995.5,1189.8z M1009,1197.7c23.4-3.2,53.1-7.4,49.5-27.4
			c-1-5.1-3.2-14.1-7.7-18.8l-43.2,41c-0.2,0.6-0.5,1.2-0.7,1.9C1007.7,1195.5,1008.3,1196.6,1009,1197.7z M1019.3,1212.3h74.5
			c-1.1-1.7-2.1-3.5-3.1-5.3c-12.7-22.4-20.3-46.4-22.6-71.7l-12.8,12.1c1.7,1.3,3.4,2.9,4.9,5.1c24.5,33.9-19.8,41.7-50,46.9
			C1013,1203.9,1016,1208.1,1019.3,1212.3z M1006.5,1212.3h3.9c-1.3-1.8-2.6-3.6-3.9-5.4V1212.3z M968.3,1212.3h30.9v-10.9
			c-0.4,0.1-0.8,0.2-1.2,0.2l-2.5,2.4v0l0,0v-1.8c-2.4,0.6-4.5,1.1-6.1,1.8c-0.7,0.3-1.6,0.4-2.4,0.4c-2.2,0-3.7-1-0.1-2.4
			c2.2-0.9,5.2-1.6,8.6-2.2v-2c-20.6-16.9-71.7-61.7-47.9-80.8c4.9-3.8,10.2-5.5,15.6-5.5c10,0,19.9,5.9,26,14.1
			c2.4,3.3,4.5,7,6.3,10.9V821.8l0,0v0l153,145.9c6.8-4.1,13.9-7.9,21.4-11.2V815.3H979.8c-30,0-57.7,4.8-83.3,14.5
			c-25.7,9.8-48.2,23.7-67.5,41.9c-19.5,18.2-34.4,39.2-44.8,63.4c-3.8,8.5-6.9,17.3-9.3,26.3l0,0c9.1,2.3,17.9,5.1,26.6,8.6
			c25.7,10.5,47.6,24.5,66.1,42.3c18.7,17.9,33.1,39,43.6,63.1c10.5,24.2,15.8,50.2,15.8,78c0,18.7-2.2,36.4-6.6,53.2l0,0
			C935.9,1210.4,951.8,1212.3,968.3,1212.3z"/>
		<path id="XMLID_2070_" class="st21" d="M999.2,1212.3h7.4v-5.4c-1-1.5-2.1-3-3-4.6c-0.5,0.1-1,0.2-1.4,0.2c-0.6,0-1.1-0.1-1.4-0.4
			c-0.3-0.2-0.5-0.4-0.8-0.7c0,0,0,0,0,0c-0.2,0-0.3,0-0.4,0c-0.1,0-0.2,0-0.2,0V1212.3z"/>
		<path class="st21" d="M1007,1194.3c0.2-0.6,0.5-1.3,0.7-1.9l0,0l-1.2,1.1C1006.7,1193.8,1006.8,1194.1,1007,1194.3z M995.5,1197.8
			v-8c-18.9-16-39.4-35.8-46.1-58.1c-3.2-10.3,4.7-15.5,13.5-15.5c4.5,0,9.3,1.4,12.9,4.1c7.7,6,11.7,16.5,14.9,25.3
			c2,5.4,3.6,11,4.8,16.8v-25.8c-1.8-3.9-3.9-7.6-6.3-10.9c-6.1-8.3-15.9-14.1-26-14.1c-5.3,0-10.7,1.7-15.6,5.5
			C923.8,1136.1,974.9,1180.9,995.5,1197.8z M1010.1,1199.4c30.2-5.2,74.5-13,50-46.9c-1.6-2.2-3.2-3.9-4.9-5.1l0,0l-4.3,4.1
			c0,0,0,0,0,0c4.5,4.7,6.8,13.7,7.7,18.8c3.6,20.1-26.1,24.2-49.5,27.4C1009.4,1198.3,1009.8,1198.9,1010.1,1199.4z M1002.1,1202.4
			c0.4,0,0.9-0.1,1.4-0.2c-0.8-1.2-1.5-2.4-2.3-3.7l-3.2,3.1l0,0c0.4-0.1,0.8-0.2,1.2-0.2c0.1,0,0.2,0,0.2,0c0.1,0,0.3,0,0.4,0
			c0,0,0,0,0,0c0.3,0.2,0.6,0.5,0.8,0.7C1001,1202.3,1001.5,1202.4,1002.1,1202.4z M987,1204.4c0.8,0,1.6-0.1,2.4-0.4
			c1.6-0.6,3.7-1.2,6.1-1.8v-2.4c-3.4,0.6-6.4,1.3-8.6,2.2C983.3,1203.4,984.8,1204.4,987,1204.4z"/>
		<path id="XMLID_2064_" class="st21" d="M1010.4,1212.3h8.8c-3.2-4.1-6.3-8.4-9.1-12.9c-0.4-0.6-0.7-1.1-1.1-1.7
			c-0.7-1.1-1.4-2.2-2.1-3.4c-0.2-0.3-0.3-0.5-0.5-0.8l-5.3,5c0.7,1.2,1.5,2.5,2.3,3.7c1,1.6,2,3.1,3,4.6
			C1007.8,1208.7,1009.1,1210.5,1010.4,1212.3z"/>
		<path id="XMLID_2063_" class="st22" d="M920.5,1206.5L920.5,1206.5c-17.9-4.5-35-11.6-51.4-21.3c-30.4-17.6-54.9-41.9-73.2-72.8
			c-18.3-30.7-27.5-63.8-27.5-99.2c0-18.1,2.2-35.3,6.7-51.8l0,0c-4.5,16.4-6.7,33.7-6.7,51.8c0,35.4,9.2,68.5,27.5,99.2
			c18.3,30.9,42.8,55.2,73.2,72.8C885.4,1194.9,902.6,1202,920.5,1206.5z"/>
		<path id="XMLID_2062_" class="st22" d="M920.5,1206.5c4.4-16.8,6.6-34.5,6.6-53.2c0-27.8-5.3-53.8-15.8-78
			c-10.5-24.2-24.9-45.2-43.6-63.1c-18.5-17.8-40.4-31.8-66.1-42.3c-8.7-3.4-17.5-6.3-26.6-8.6c-4.5,16.4-6.7,33.7-6.7,51.8
			c0,35.4,9.2,68.5,27.5,99.2c18.4,30.9,42.8,55.2,73.2,72.8C885.4,1194.9,902.6,1202,920.5,1206.5z"/>
	</g>
	<g>
		<defs>
			<rect id="XMLID_2046_" x="1067.1" y="939.4" width="434.1" height="357.2"/>
		</defs>
		<clipPath id="XMLID_9_">
			<use xlink:href="#XMLID_2046_"  style="overflow:visible;"/>
		</clipPath>
		<path class="st23" d="M1170,956.5c3.1-1.3,6.2-2.6,9.3-3.8c22.5-8.5,46.2-13,71.4-13.3h0c-25.1,0.3-48.9,4.7-71.4,13.3
			C1176.2,953.9,1173,955.1,1170,956.5L1170,956.5z M1119.6,989.8c8.9-8.4,18.5-15.8,28.9-22.1l0,0
			C1138.1,974,1128.5,981.4,1119.6,989.8z M1068,1135.2L1068,1135.2c-0.5-5.8-0.8-11.7-0.8-17.6c0-25.2,4.6-48.8,13.9-71
			c9.4-22.2,22.2-41.2,38.6-56.9c-16.4,15.7-29.2,34.7-38.6,56.9c-9.3,22.2-13.9,45.8-13.9,71
			C1067.1,1123.6,1067.4,1129.4,1068,1135.2z M1240.5,1296.6L1240.5,1296.6c-31.2-0.2-60-8.2-86.2-24.2
			c-24.9-14.9-45.2-34.9-60.6-60.2h0c15.4,25.3,35.6,45.3,60.6,60.2C1180.5,1288.4,1209.3,1296.4,1240.5,1296.6z"/>
		<path id="XMLID_2056_" class="st23" d="M1170,956.5L1170,956.5L1170,956.5C1170,956.5,1170,956.5,1170,956.5L1170,956.5z"/>
		<path id="XMLID_2055_" class="st23" d="M1240.6,1296.6h28.3V939.4h-18.2c-25.1,0.3-48.9,4.7-71.4,13.3c-3.2,1.2-6.3,2.5-9.3,3.8
			l0,0v31.6l-21.4-20.4c-10.4,6.4-20.1,13.7-28.9,22.1c-16.3,15.7-29.2,34.7-38.6,56.9c-9.3,22.2-13.9,45.8-13.9,71
			c0,5.9,0.3,11.8,0.8,17.6l102.4-97.2v174.3h-76.7c15.4,25.3,35.6,45.3,60.6,60.2C1180.5,1288.4,1209.3,1296.4,1240.6,1296.6z"/>
		<polygon id="XMLID_2054_" class="st24" points="1068,1135.2 1068,1135.2 1068,1135.2 1068,1135.2 		"/>
		<path id="XMLID_2053_" class="st24" d="M1093.7,1212.3L1093.7,1212.3c-1-1.7-2.1-3.5-3.1-5.3c-12.7-22.4-20.3-46.4-22.7-71.8l0,0
			c2.4,25.4,9.9,49.3,22.6,71.7C1091.6,1208.8,1092.7,1210.5,1093.7,1212.3z"/>
		<path id="XMLID_2052_" class="st24" d="M1093.7,1212.3h76.7V1038l-102.4,97.2l0,0c2.4,25.4,9.9,49.3,22.7,71.8
			C1091.6,1208.8,1092.7,1210.5,1093.7,1212.3z"/>
		<path id="XMLID_2051_" class="st24" d="M1148.5,967.7C1148.5,967.7,1148.6,967.7,1148.5,967.7L1148.5,967.7
			C1148.6,967.7,1148.5,967.7,1148.5,967.7L1148.5,967.7z"/>
		<path id="XMLID_2050_" class="st24" d="M1148.6,967.7c6.8-4.1,13.9-7.9,21.4-11.2v0C1162.5,959.8,1155.4,963.5,1148.6,967.7
			L1148.6,967.7z"/>
		<path id="XMLID_2049_" class="st24" d="M1170,988.1v-31.6c-7.5,3.3-14.6,7-21.4,11.2c0,0,0,0,0,0L1170,988.1z"/>
		<polygon id="XMLID_2048_" class="st23" points="1299.1,1296.6 1299.1,1296.6 1299.1,939.4 1299.1,939.4 1299.1,1296.6 		"/>
		<path id="XMLID_2047_" class="st23" d="M1299.1,1296.6h20.6c25.1-0.2,48.6-4.6,70.5-13.4c22-8.5,41.3-20.9,58-37.3
			c0.3-0.3,0.5-0.5,0.8-0.8c16.3-16.1,29.3-35.3,38.6-57.5c9.1-21.5,13.6-44.9,13.6-70.4c0-24.9-4.7-48.2-14.1-69.8
			c-9.3-21.7-22.4-40.5-39-56.6c-16.6-15.9-36.3-28.5-59.2-37.9c-21.7-8.6-44.9-13.2-69.5-13.4h-20.3V1296.6L1299.1,1296.6z"/>
	</g>
	<path class="st25" d="M820.7,1525.9c0.2,10.9-2.7,23.8-8.9,38.7c-5.5,13.1-12.9,19.8-22.2,19.9c-1.2,0-5.5-1.4-13-4.2
		c-0.5,2.8-1,5.8-1.7,9.3c-0.7,3.5-1.4,7.3-2.4,11.5c-1.9,5.7-3.6,10.5-5.1,14.6c-1.6,3.9-2.9,6.9-4.1,8.9
		c-4.8,8.1-10.7,12.1-17.8,12.2c-18,0.3-27.3-17.9-27.9-54.6c-0.4-23.4,1.3-39.3,5-47.5v0.7c0-0.5-0.2-1.6-0.4-3.3
		c-0.2-1.7-0.4-3.1-0.4-4.1l-0.1-2.5c0.2-2.3,0.9-3.9,2.2-5.2c0.5-1.3,0.9-3.2,1.3-5.6c0.6-2.5,1.2-5.8,2.1-10
		c1.7-8.4,5.7-12.7,12.4-12.8c6.3,0,13.1,2.5,20,7.9c7.3,5.3,11.9,10.7,14,16.4c2.1,5.9,3.4,23.8,3.9,53.6c3.5,2.7,6.6,3.9,9.3,3.9
		c8.6,0,14.9-5.1,19-14.7c1.8-3.7,4.2-13.4,7.2-29.4c0.8-4.4,2.4-6.7,4.3-6.7C819.5,1522.6,820.7,1523.7,820.7,1525.9z
		 M765.9,1581.7c-0.1-2.6-0.4-6-0.9-10c-0.6-3.9-1.4-8.5-2.5-13.6c-1.1-5.2-1.9-9.7-2.5-13.5c-0.6-3.8-0.8-7.1-0.9-9.8
		c0-1.8,0.2-4.4,0.4-8.1c0.2-3.8,0.4-6.5,0.3-8.2c-0.2-8.7-4.1-12.9-12-12.7c-5.2,0-9.6,11.7-13,35c-3.3,20-4.9,35.2-4.8,45.5
		c0.4,26.7,6.1,39.8,16.9,39.7c2.7-0.1,6.2-5.1,10.5-15C763.2,1598.1,766,1588.3,765.9,1581.7z"/>
	<path id="XMLID_2043_" class="st25" d="M865,1632.1c-7.6,0.2-14.1-4-19.4-12.6c-2.3-3.6-3.7-11.1-4.1-22.5
		c-0.6-8.4-0.8-19.9-0.6-34.4l0.2-29.7c-0.1-5.9-6.2-11.8-18.4-17.8c0.2,6.2-2.6,19.4-8.2,39.8c0,0.3-0.6,1.6-1.8,3.9
		c-1.2,2.3-1.8,3.7-1.8,3.9l-4.8-1.4c-0.1-3.9,1.3-11.7,4.1-23.3c2.9-11.2,4.4-19.9,4.3-26.4c-0.1-2.4-1.1-6.7-3.2-12.6
		c-2.1-5.8-3.1-10.1-3.1-12.8c-0.3-12.4,2.7-18.6,8.8-18.7c4.9-0.1,7.6,3.7,8,11.4c0.2,1.4,0.3,3.1,0.2,5c-0.1,1.8-0.2,4-0.4,6.5
		c-0.2,2.9-0.4,5.4-0.5,7.4c-0.1,2-0.1,3.5-0.1,4.5c0,2.5,5.4,6.3,15.8,11.6c10.6,5.2,16.1,11.4,16.2,18.6c0.1,4.2-0.1,9.3-0.5,15.4
		c-0.4,6.1-1,13.2-1.9,21.4c-0.8,7.9-1.4,14.9-1.8,20.9c-0.4,6-0.6,11.1-0.4,15.3c0.2,11.6,3.8,17.3,10.9,17.2
		c4.2-0.1,10.5-13.2,18.9-39.2c8-24.2,12.5-41.9,13.8-53.6c0.7-5.6,2.3-8.6,5-8.6c2-0.1,3,1.8,3.1,5.5c0.1,8.4-4.3,27.2-13.4,56.5
		C879.8,1615.7,871.4,1632,865,1632.1z"/>
	<path class="st25" d="M977.4,1661.6c-21.4,0.4-32.1,1.5-32.1,3.2c0,1.5,0.1,3.6,0.3,6.3c0.2,2.7,0.3,5.5,0.4,8.5
		c0.1,2.9,0.1,5.8,0.3,8.5c0.2,2.7,0.3,4.8,0.3,6.3c0.4,24.1-1.8,42.2-6.5,54.2c-7.1,17.7-21.1,26.6-42,27
		c-15.7,0.2-29.8-5-41.9-15.9c-12.5-10.6-18.9-23.7-19.2-39.2c-0.4-21,21.1-39.5,64.4-55.5c8.8-1.9,19.4-5.1,31.9-9.5
		c-0.1-2.2-0.2-5-0.5-8.2c-0.3-3.4-0.8-7.4-1.3-12c-0.9-8.9-1.4-15.6-1.5-20c-1,0.4-3.8,4.5-8.2,12.8c-4.4,7.9-8.8,12-13.5,12
		c-8.6,0.2-15.1-4.4-19.5-13.7c-3.5-7.6-5.4-16-5.6-25.4c-0.3-16.2,3-38.4,9.9-66.4c7.2-29.2,14.1-43.8,21-43.9
		c5-0.2,11.8,4.8,20.6,14.8c9.5,10.6,17.3,16.8,23.2,18.4c-5.9,11.5-10.4,27.3-13.5,47.7c-1.2,7.9-2,15.2-2.6,22.1
		c-0.7,6.8-0.9,13.1-0.8,19c0.1,2.6,0.4,7.4,0.8,14c0.5,6.6,1.3,15.5,2.5,26.6c9-1.1,16.8-2,23.2-2.4c6.4-0.5,11.3-0.8,14.8-0.9
		c10.8-0.1,16.3,3.1,16.4,9.4c0,4.2-2.6,6.4-8,6.4C987.3,1665.5,982.9,1664.2,977.4,1661.6z M935,1666.5c-15,0.2-26.9,2.1-35.8,5.7
		c-12.6,5.7-23.5,12.2-32.4,19.8c-12.6,10.5-18.9,21-18.6,31.4c0.1,11.6,5.1,21.4,14.8,29.4c9.2,7.9,19.8,11.9,31.7,11.6
		c29-0.5,43.1-22.9,42.3-67.3c0-0.5-0.2-3.3-0.5-8.3C936.2,1683.8,935.7,1676.3,935,1666.5z M937.8,1530.9c-0.3-16.1-7-23.9-20-23.7
		c-2.5,0-6.6,11.5-12.3,34.6c-6.7,26-9.9,47.8-9.6,65.3c0.3,15.8,3.6,23.6,9.7,23.4c6.9-0.1,14.2-13.1,21.8-38.8
		C934.7,1568,938.1,1547.7,937.8,1530.9z"/>
	<path class="st25" d="M1036.9,1628.3c-9.1,0.1-16.7-8.7-22.9-26.6c-6,23.1-14,34.7-24.1,34.9c-14.5,0.2-21.8-17.6-21.6-53.7
		c0.3-9.7,3.1-25.7,8.4-48.3c6.7-25.8,12.5-38.7,17.4-38.7c10.9-0.3,17.7,2.5,20.9,8.1l6.8,13.2l13,4.3c-5.8,18-9.6,40.2-11.3,66.4
		c-0.5,5.7,0.1,11.6,1.7,17.8c2.2,8.6,5.3,12.8,9.5,12.8c8.4-0.2,19.3-30.7,32.8-91.6c1.4-5.7,3-8.6,5-8.6c2,0,3,1.8,3,5.5
		c0.2,9.1-4,27.9-12.7,56.2C1052.9,1612.1,1044.4,1628.3,1036.9,1628.3z M1012.7,1525.2c-1.2-11.3-4.3-16.9-9.5-16.8
		c-4.2,0.1-7.8,6-10.8,18c-0.9,2.7-1.9,6.3-3.2,10.7c-1.1,4.5-2.5,9.6-4.1,15.2c-3.6,15.2-5.3,33.8-4.9,56c0,4.2,1,8.1,2.7,11.8
		c2.3,4.7,5.2,7,8.7,7c4.7-2.9,9.3-12.4,14.3-28.8c1.8-6.4,3.5-12.4,4.9-18c1.3-5.6,2.3-10.6,2.7-15l3.9-34.1L1012.7,1525.2z"/>
	<path id="XMLID_2037_" class="st25" d="M1179.9,1521.9c0.1,6.8-3.9,23.8-12.1,50.5c-11.1,35.9-20.3,54-27.5,54.2
		c-9.1,0.1-15.6-8.5-19.3-26c-1.1-4.9-2-12.6-3-23.1c-0.9-10.4-1.8-24-2.9-40.5c-1.2,4.4-3.4,12.7-6.5,24.7
		c-3.1,12-6.9,28-11.5,48.1c-2.2,10.6-6,16-11.2,16.1c-7.6,0.1-12.4-5-14.3-15.3l-2-27.6c-1-10.9-1.1-20.8-0.5-29.7l1-13.7l-3.5-7
		c0.1-6.7,0.7-11.1,1.6-13.3c1.5-4,4.5-6.1,9.2-6.1c4.9-0.1,7.4,2.1,7.5,6.5c0.1,1.5-0.8,4.8-2.4,9.7c-1.4,4.9-2.1,9-2,11.9
		c0.1,2.3,0.1,5,0.1,8.5c0.1,3.2,0,7-0.1,11.4c-0.2,4.5-0.3,8.5-0.2,11.9c0,3.2,0.1,5.9,0.2,8.1c0.3,17.7,2.4,26.6,6.3,26.5
		c1.2,0,2.8-3.2,4.7-9.7c3.2-14.3,5.6-23.8,7.2-28.2c3.3-11.2,5.9-21.5,8-30.9c2-9.4,3.2-18.3,3.6-26.7c0.5-10.4,2.2-16.6,4.9-18.6
		c12.5,0.5,18.9,4.4,19,11.5c0-5.4-0.5-6.5-1.1-3c-0.7,3.5-1.6,11.5-2.6,24.1c-1,12.4-1.8,22.4-2.2,30.2c-0.5,7.8-0.7,13.4-0.6,16.9
		c0.5,26.7,4.1,39.9,11,39.8c5.9-0.1,12.8-13.3,20.6-39.6c2.4-7.6,4.5-15.3,6.5-22.8c1.9-7.5,3.7-15.2,5.3-22.9
		c1.5-7.7,3.5-11.6,5.7-11.6C1178.8,1516.3,1179.8,1518.2,1179.9,1521.9z"/>
	<path class="st25" d="M1228.5,1520.7c0.2,6.2-3.9,23.4-12,51.6c-6,20.3-9.9,32.5-11.6,36.5c-4.7,11-10.5,16.5-17.4,16.7
		c-7.6,0.1-13.4-4.3-17.2-13.1c-2.8-7.4-4.3-15.1-4.5-23.2c-0.1-4.5,0-10,0.4-16.7c0.4-6.7,0.9-14.6,1.8-23.6
		c0.8-9.2,1.4-17.2,1.8-24c0.3-6.8,0.5-12.4,0.4-16.9c1.7-1.7,4.2-2.6,7.3-2.6c6.4-0.1,9.7,1.6,9.7,4.9c-0.4,2-1.1,4.9-1.9,8.4
		c-0.8,3.6-1.8,8.1-2.9,13.5c-4.3,22.5-6.2,41.8-5.9,57.5c0.3,16.5,4.1,24.8,11.5,24.6c3.5,0,7.6-6.2,12.3-18.7
		c0.2-0.3,4-12.9,11.5-38c1.2-3.9,2.4-8.6,3.8-14.1c1.4-5.4,2.9-11.7,4.5-18.8c1.3-6,3-9.1,5-9.1
		C1227.4,1515.5,1228.5,1517.2,1228.5,1520.7z M1196.6,1420.9c0.2,9.2-2.9,13.7-9,13.8c-3.9,0.1-7.4-1.4-10.4-4.6
		c-3-3.2-4.5-6.7-4.6-10.7c0-2.4,1.2-5,3.7-7.8c2.5-2.8,5.1-4.2,7.5-4.2C1192.2,1407.3,1196.4,1411.8,1196.6,1420.9z"/>
	<path id="XMLID_2034_" class="st25" d="M1286.4,1514.5c1.9,0,2.9,2.1,3,6.2c0.1,3.9-1.9,14.1-6.1,30.5c-5.3,20.5-9.5,35-12.6,43.4
		c-8.2,20.9-17.2,31.5-26.8,31.5c-11.6,0.3-20-6-25.4-18.8c-3.6-9.5-5.6-20.8-5.8-33.9c-0.2-13.1,1.9-28.9,6.2-47.5
		c5.7-24,13-36.2,21.9-36.3c3.4,0,7.3,2.5,11.6,7.5c4.3,5.4,6.4,9.8,6.5,13.2c0.1,5.9-2,9-6.1,9c-3.2,0-7.7-2-13.4-6.1
		c-9.9,12.5-14.5,37-13.9,73.5c0.1,5.7,1.2,11.5,3.3,17.4c2.6,7.6,6.5,11.3,11.6,11.3c14-0.2,26.7-27,38.1-80.2
		c1.8-9.2,2.8-14.2,3.1-15.2C1282.7,1516.4,1284.3,1514.5,1286.4,1514.5z"/>
	<rect id="XMLID_2033_" x="999.2" y="1199.8" class="st25" width="7.4" height="309.1"/>
	<path id="XMLID_2032_" class="st25" d="M1007.3,1199.6c-21.4-17.4-49.8-40.7-57.9-67.9c-4.8-15.6,15.8-19.4,26.4-11.3
		c7.7,6,11.7,16.5,14.9,25.3c6.3,17,9.1,37,7.8,55.1c-0.2,1.5,6.6,0.2,7.1-1.5c3-11.5,9.7-22,16.4-31.6c4.1-5.7,9-11,14.5-15.5
		c14.7-12,20.5,9.2,22.2,18.1c5,27.9-54.4,25-71.7,31.7c-4.8,1.8-0.3,3,2.5,1.9c19.3-7.5,102.4-7.6,70.7-51.4
		c-21.5-29.7-57.3,31.4-61.6,47.9c2.3-0.6,4.7-1.1,7-1.5c1.7-23.2-2.4-53.8-16.3-73.2c-9.3-12.7-27.5-19.7-41.5-8.7
		c-26.3,21,38.4,73.2,53,85C1002.3,1203.4,1008.7,1200.7,1007.3,1199.6z"/>
	<path id="XMLID_2031_" class="st25" d="M999.7,1196.1c7.7,13.5,17.3,25.4,28.3,36.5c2,2,8.8-0.7,6.5-2.9
		c-10.9-11-20.5-23.1-28.3-36.5C1004.8,1190.7,998,1193.2,999.7,1196.1z"/>
	<g>
		<defs>
			<rect id="XMLID_2017_" x="1479.3" y="942.7" width="78.5" height="78.5"/>
		</defs>
		<clipPath id="XMLID_10_">
			<use xlink:href="#XMLID_2017_"  style="overflow:visible;"/>
		</clipPath>
		<path class="st26" d="M1479.3,981.7c0.1-11.4,4.1-20.8,12.2-28.3c7.4-6.8,16-10.4,25.9-10.7h0c-9.9,0.3-18.5,3.8-25.9,10.7
			C1483.4,960.9,1479.4,970.4,1479.3,981.7z M1541.4,1005.1c6.3-6.4,9.5-14.1,9.5-23.1c0-8.7-3.1-16.3-9.4-22.8
			c-6.4-6.5-14-9.8-22.9-9.8c8.9,0,16.5,3.3,22.9,9.8c6.3,6.4,9.4,14.1,9.4,22.8C1550.8,991,1547.7,998.7,1541.4,1005.1z
			 M1518.5,1014.7c8.9,0,16.5-3.2,22.8-9.6C1535,1011.5,1527.4,1014.7,1518.5,1014.7z M1518.5,1021.2c-11.1,0-20.3-3.8-27.9-11.4
			c-7.5-7.6-11.3-16.8-11.3-27.9c0,11.1,3.8,20.3,11.3,27.9C1498.2,1017.5,1507.4,1021.2,1518.5,1021.2z"/>
		<path class="st27" d="M1518.5,1014.7c-9,0-16.6-3.2-22.9-9.6c-6.3-6.4-9.5-14.1-9.5-23.1c0-8.7,3.2-16.4,9.4-22.8
			c6.4-6.5,14-9.8,23.1-9.8c8.9,0,16.5,3.3,22.9,9.8c6.3,6.4,9.4,14.1,9.4,22.8c0,9-3.2,16.7-9.5,23.1
			C1535.1,1011.5,1527.4,1014.7,1518.5,1014.7z M1518.5,1021.2c10.6,0,19.8-3.7,27.4-11.1c7.9-7.7,11.8-17,11.8-28.2
			c0-10.8-3.8-20.1-11.5-27.7c-7.4-7.4-16.2-11.3-26.6-11.5h-2.3c-9.9,0.3-18.5,3.8-25.9,10.7c-8.1,7.5-12.2,17-12.2,28.3
			c0,0.1,0,0.2,0,0.3c0,11.1,3.8,20.3,11.3,27.9C1498.2,1017.5,1507.4,1021.2,1518.5,1021.2z"/>
		<path class="st26" d="M1514.8,960.4c-0.4,0-0.9,0-1.3,0c-0.3,0-0.5,0-0.8,0c0.3,0,0.5,0,0.8,0
			C1513.9,960.3,1514.3,960.4,1514.8,960.4z M1517.1,980.6L1517.1,980.6c2.7,0,4.8-0.5,6.3-1.6c1.5-1.1,2.2-2.8,2.2-5.2
			c0-2.3-1.2-4-3.5-4.9c-1.6-0.6-3.7-0.9-6.6-0.9h-2.8h2.7c2.9,0,5,0.3,6.6,0.9c2.4,0.9,3.5,2.6,3.5,4.9c0,2.4-0.8,4.1-2.2,5.2
			C1521.9,980,1519.8,980.6,1517.1,980.6z M1532.2,982c0.5-0.3,1-0.7,1.5-1c0.2-0.1,0.3-0.3,0.5-0.4c-0.2,0.2-0.3,0.3-0.5,0.4
			C1533.2,981.3,1532.7,981.7,1532.2,982z M1526.1,1003.8h10.8H1526.1c-0.3-1.4-0.6-3.4-0.7-6c-0.2-2.6-0.4-4.3-0.8-5.3
			c-0.6-1.5-1.6-2.6-3.2-3.2c-0.8-0.3-2.1-0.6-3.8-0.7l-2.6-0.2h-2.4h2.3l2.5,0.2c1.7,0.1,3,0.3,3.9,0.7c1.6,0.6,2.6,1.7,3.2,3.2
			c0.4,1,0.6,2.7,0.8,5.3C1525.6,1000.4,1525.8,1002.4,1526.1,1003.8z M1501.3,1003.8h11.4H1501.3l0-43.5h0V1003.8z"/>
		<path class="st27" d="M1517.1,980.6h-4.4V968h2.8c2.9,0,5,0.3,6.6,0.9c2.4,0.9,3.5,2.6,3.5,4.9c0,2.4-0.8,4.1-2.2,5.2
			C1521.9,980,1519.8,980.6,1517.1,980.6L1517.1,980.6z M1501.3,1003.8h11.4v-15.4h2.4l2.6,0.2c1.7,0.1,3,0.3,3.8,0.7
			c1.6,0.6,2.6,1.7,3.2,3.2c0.4,1,0.6,2.7,0.8,5.3c0.1,2.6,0.3,4.6,0.7,6h10.8l-0.4-1.2l-0.3-1.2l-0.1-1.3v-3.9
			c0-4.4-1.2-7.7-3.8-9.8c-1.4-1.1-3.4-1.9-6.2-2.5c2.3-0.2,4.3-0.9,6-1.9c0.5-0.3,1-0.7,1.5-1c0.2-0.1,0.3-0.3,0.5-0.4
			c1.7-1.6,2.6-4.1,2.6-7.5c0-4.8-2-8.3-5.8-10.4c-2.2-1.3-5.1-2-8.6-2.2c-0.6,0-3.1,0-7.6-0.1c-0.4,0-0.9,0-1.3,0
			c-0.3,0-0.5,0-0.8,0c-5,0-8.8,0-11.3,0V1003.8z"/>
	</g>
</g>
</svg>
